<svg width="22" height="22" viewBox="0 0 22 22" fill="none" xmlns="http://www.w3.org/2000/svg">
<path d="M21.5974 10.8773C21.5974 16.6906 16.9014 21.4032 11.1085 21.4032C5.31566 21.4032 0.619629 16.6906 0.619629 10.8773C0.619629 5.06395 5.31566 0.351318 11.1085 0.351318C16.9014 0.351318 21.5974 5.06395 21.5974 10.8773Z" fill="white"/>
<path d="M13.6827 13.4491H14.8131C14.5601 14.1583 13.8747 14.6681 13.0673 14.6681H12.4589C12.233 14.2176 11.7632 13.9086 11.2212 13.9086C10.4604 13.9086 9.84042 14.518 9.84042 15.2738C9.84042 16.0296 10.4604 16.639 11.2212 16.639C11.7632 16.639 12.233 16.3301 12.4589 15.8795H13.0673C14.5846 15.8795 15.8469 14.7927 16.0959 13.3612C16.8349 13.1252 17.3712 12.4396 17.3712 11.6283V9.80547C17.3712 8.99759 16.8394 8.31443 16.1054 8.07556C15.8071 5.90317 13.6562 4.33901 11.2212 4.33901C8.78623 4.33901 6.63527 5.90317 6.33701 8.07555C5.60296 8.31443 5.07119 8.99759 5.07119 9.80547V11.6283C5.07119 12.6357 5.89783 13.4491 6.9135 13.4491H8.75965C9.09559 13.4491 9.37119 13.1797 9.37119 12.8434V8.59028C9.37119 8.25397 9.09559 7.98458 8.75965 7.98458H7.60019C7.93525 6.64869 9.36391 5.55041 11.2212 5.55041C13.0785 5.55041 14.5071 6.64869 14.8422 7.98458H13.6827C13.3468 7.98458 13.0712 8.25397 13.0712 8.59028V12.8434C13.0712 13.1797 13.3468 13.4491 13.6827 13.4491ZM6.29427 9.80547C6.29427 9.47063 6.56969 9.19598 6.9135 9.19598H8.14811V12.2377H6.9135C6.56969 12.2377 6.29427 11.9631 6.29427 11.6283V9.80547ZM15.5289 9.19598C15.8727 9.19598 16.1481 9.47062 16.1481 9.80547V11.6283C16.1481 11.9631 15.8727 12.2377 15.5289 12.2377H14.2943V9.19598H15.5289Z" fill="#FE3C72" stroke="#FE3C72" stroke-width="0.3"/>
</svg>
